<?xml version="1.0" standalone="no"?>
<!DOCTYPE svg PUBLIC "-//W3C//DTD SVG 20010904//EN"
 "http://www.w3.org/TR/2001/REC-SVG-20010904/DTD/svg10.dtd">
<svg version="1.0" xmlns="http://www.w3.org/2000/svg"
 width="700.000000pt" height="700.000000pt" viewBox="0 0 700.000000 700.000000"
 preserveAspectRatio="xMidYMid meet">
<metadata>
Created by potrace 1.14, written by Peter Selinger 2001-2017
</metadata>
<g transform="translate(0.000000,700.000000) scale(0.100000,-0.100000)"
fill="#000000" stroke="none">
<path d="M3669 6996 c-2 -2 -30 -7 -61 -10 -69 -8 -188 -39 -260 -67 -70 -27
-182 -82 -186 -91 -2 -5 -9 -8 -16 -8 -15 0 -180 -124 -231 -175 -147 -145
-256 -318 -321 -511 -14 -43 -27 -80 -28 -82 -2 -1 -37 18 -78 43 -501 301
-1144 38 -1293 -530 -40 -155 -34 -350 16 -487 10 -28 17 -53 15 -55 -2 -2
-25 1 -52 7 -107 24 -192 30 -295 19 -414 -41 -745 -327 -850 -734 -32 -123
-32 -350 -1 -467 74 -274 266 -514 507 -632 69 -34 197 -78 265 -92 19 -4 442
-9 940 -11 498 -2 948 -4 1001 -6 l95 -2 -243 -610 c-410 -1027 -403 -1009
-394 -1042 14 -50 35 -73 71 -83 19 -5 257 -9 528 -9 272 0 496 -2 499 -4 2
-3 -9 -29 -25 -59 -16 -29 -49 -89 -72 -133 -24 -44 -50 -93 -60 -110 -19 -35
-69 -126 -168 -310 -38 -71 -83 -155 -99 -185 -17 -30 -70 -129 -118 -220 -49
-91 -95 -173 -103 -182 -8 -10 -12 -18 -7 -18 4 0 3 -6 -3 -13 -6 -7 -13 -25
-16 -41 -4 -22 1 -35 24 -57 43 -43 82 -36 146 26 20 20 269 255 355 336 24
23 111 105 193 183 81 77 167 159 191 181 23 22 111 105 195 185 84 80 172
163 195 185 24 22 110 104 191 181 82 78 169 161 194 184 208 194 344 329 351
348 10 25 -9 84 -32 98 -8 4 -239 8 -514 9 -328 0 -499 3 -497 10 2 6 110 178
240 382 130 205 264 415 297 467 33 53 89 141 124 196 35 55 67 102 71 105 4
2 273 5 597 5 638 1 716 6 902 56 575 155 1011 627 1126 1219 19 103 27 403
12 480 -3 17 -8 51 -12 78 -3 26 -9 57 -14 70 -5 12 -9 24 -9 27 0 14 -26 103
-47 162 -164 459 -567 831 -1042 962 -78 21 -109 28 -188 41 -84 15 -304 21
-378 10 -126 -17 -181 -27 -244 -44 -51 -13 -73 -15 -73 -7 0 22 -108 231
-152 293 -189 269 -474 456 -790 518 -73 15 -358 31 -369 21z"/>
<path d="M1847 2651 c-362 -215 -364 -217 -414 -284 -234 -319 122 -747 481
-579 88 41 136 89 182 178 l39 77 -1 141 c-1 78 -4 245 -9 371 -9 273 -8 255
-10 255 0 0 -121 -71 -268 -159z"/>
<path d="M5490 2733 c-69 -41 -141 -84 -160 -95 -176 -101 -328 -198 -361
-232 -22 -23 -54 -70 -71 -106 -28 -57 -32 -76 -32 -150 -2 -177 94 -314 262
-376 57 -22 171 -27 232 -11 126 33 250 164 275 292 6 33 6 165 0 345 -9 268
-15 403 -18 406 -1 1 -58 -32 -127 -73z"/>
<path d="M484 2169 c-148 -89 -280 -167 -294 -174 -14 -7 -44 -31 -66 -52
-119 -112 -153 -269 -93 -429 26 -70 117 -166 190 -202 155 -75 354 -37 464
89 17 19 44 61 60 94 l30 60 -1 190 c0 212 -11 575 -17 581 -2 2 -125 -69
-273 -157z"/>
<path d="M6273 1765 c-67 -40 -141 -85 -165 -98 -166 -95 -318 -193 -356 -229
-26 -25 -59 -71 -76 -108 -28 -58 -31 -75 -31 -160 0 -86 3 -101 31 -160 74
-154 218 -239 391 -228 115 8 224 72 291 172 49 73 57 116 56 296 -1 173 -12
582 -17 586 -1 1 -57 -31 -124 -71z"/>
<path d="M1592 1176 c-67 -41 -125 -76 -130 -78 -4 -2 -82 -48 -172 -102 -190
-114 -239 -156 -283 -246 -30 -60 -32 -72 -32 -165 1 -87 4 -107 28 -156 97
-204 329 -289 531 -193 90 42 176 143 204 239 10 35 9 292 -3 565 -1 30 -3 90
-4 133 0 42 -4 77 -8 77 -5 0 -63 -34 -131 -74z"/>
<path d="M5025 938 c-110 -65 -240 -142 -289 -171 -150 -86 -223 -169 -253
-287 -11 -40 -10 -129 1 -180 22 -97 117 -216 203 -254 21 -9 46 -21 55 -26
10 -6 51 -13 91 -16 227 -18 412 147 420 375 2 70 -20 671 -25 676 -2 2 -93
-51 -203 -117z"/>
</g>
</svg>
